<svg xmlns="http://www.w3.org/2000/svg" viewBox="0 0 512 512" role="img" aria-label="Triple20">
  <defs>
    <linearGradient id="bg" x1="80" y1="40" x2="432" y2="472" gradientUnits="userSpaceOnUse">
      <stop offset="0" stop-color="#07111F"/>
      <stop offset="1" stop-color="#02050A"/>
    </linearGradient>
    <linearGradient id="blue" x1="126" y1="112" x2="396" y2="414" gradientUnits="userSpaceOnUse">
      <stop offset="0" stop-color="#55A7FF"/>
      <stop offset="0.55" stop-color="#0E6BFF"/>
      <stop offset="1" stop-color="#0057D9"/>
    </linearGradient>
    <filter id="glow" x="-30%" y="-30%" width="160%" height="160%">
      <feGaussianBlur stdDeviation="10" result="blur"/>
      <feMerge>
        <feMergeNode in="blur"/>
        <feMergeNode in="SourceGraphic"/>
      </feMerge>
    </filter>
  </defs>
  <rect width="512" height="512" rx="112" fill="url(#bg)"/>
  <circle cx="256" cy="256" r="168" fill="none" stroke="#0E6BFF" stroke-width="22" opacity="0.35"/>
  <circle cx="256" cy="256" r="112" fill="none" stroke="#0E6BFF" stroke-width="18" opacity="0.5"/>
  <circle cx="256" cy="256" r="50" fill="#0E6BFF" opacity="0.18"/>
  <path d="M354 120 296 280l-40-40 160-58-42-20 38-38z" fill="url(#blue)" filter="url(#glow)"/>
  <path d="M250 250 145 356" stroke="#F7F9FF" stroke-width="32" stroke-linecap="round"/>
  <path d="M172 330h168" stroke="#F7F9FF" stroke-width="38" stroke-linecap="round"/>
  <path d="M180 330h152" stroke="#F7F9FF" stroke-width="38" stroke-linecap="round" transform="rotate(90 256 330)"/>
  <path d="M170 330h172" stroke="#0E6BFF" stroke-width="18" stroke-linecap="round"/>
  <path d="M180 330h152" stroke="#0E6BFF" stroke-width="18" stroke-linecap="round" transform="rotate(90 256 330)"/>
  <circle cx="256" cy="256" r="18" fill="#F7F9FF"/>
  <text x="256" y="438" text-anchor="middle" font-family="Arial Black, Helvetica, sans-serif" font-size="58" font-weight="900" letter-spacing="-3" fill="#F7F9FF">TRIPLE<tspan fill="#0E6BFF" font-style="italic">20</tspan></text>
</svg>
